<?xml version="1.0" encoding="UTF-8"?>
<svg id="Layer_1" data-name="Layer 1" xmlns="http://www.w3.org/2000/svg" viewBox="0 0 150 150">
  <defs>
    <style>
      .cls-1 {
        fill: #3effc8;
      }

      .cls-2 {
        fill: #333;
      }
    </style>
  </defs>
  <rect class="cls-1" x="-2" y="-2" width="154" height="154"/>
  <g>
    <path class="cls-2" d="m53.62,121.87c0-3.96-.22-7.63.05-11.25.41-5.44,3.26-9.48,7.98-12.21,9.75-5.62,19.49-11.24,29.24-16.87.39-.23.77-.48,1.38-.85-.52-.33-.9-.6-1.3-.83-16.41-9.48-32.83-18.95-49.24-28.44-5.21-3.02-7.88-7.59-7.95-13.62-.04-3.14,0-6.28,0-9.68.53.25.92.4,1.28.61,18.44,10.63,36.88,21.27,55.32,31.91,7.02,4.05,14.06,8.09,21.07,12.16,6.33,3.68,6.49,11.88.17,15.61-10.74,6.34-21.58,12.49-32.38,18.73-7.94,4.59-15.88,9.18-23.82,13.77-.51.3-1.04.57-1.77.96Z"/>
    <path class="cls-2" d="m81.27,80.68c-3.22,1.84-6.11,3.63-9.12,5.19-2.27,1.17-4.53,1.77-6.78,1.84-3.25.1-5.71-1.02-8.74-2.38-1.41-.63-3.64-1.64-6.14-3.62-1.69-1.34-3.47-2.74-4.84-5.13-1.29-2.25-1.81-4.18-1.93-7.15-.13-3.37-.02-6.74-.02-10.43,12.64,7.3,24.98,14.42,37.57,21.69Z"/>
  </g>
</svg>