<?xml version="1.0" encoding="UTF-8"?>
<svg id="Layer_1" data-name="Layer 1" xmlns="http://www.w3.org/2000/svg" viewBox="0 0 315.71 64">
  <defs>
    <style>
      .cls-1 {
        fill: #3effc8;
      }
    </style>
  </defs>
  <g>
    <path class="cls-1" d="m247.64,36.45v11.7c0,2.15-1.74,3.9-3.9,3.9-1.58,0-2.94-.94-3.55-2.29-.22-.49-.35-1.03-.35-1.61v-11.7c0-4.31-3.49-7.8-7.8-7.8s-7.8,3.49-7.8,7.8v11.7c0,.57-.12,1.12-.35,1.61-.61,1.35-1.97,2.29-3.55,2.29-2.15,0-3.9-1.74-3.9-3.9v-27.29c2.55,0,4.82,1.22,6.24,3.12.5-.37,1.02-.72,1.56-1.03,2.29-1.33,4.96-2.09,7.8-2.09s5.5.76,7.8,2.09c2.37,1.37,4.34,3.34,5.71,5.71,1.33,2.29,2.09,4.96,2.09,7.8Z"/>
    <path class="cls-1" d="m131.38,8.58v14.36c-2.29-1.33-4.96-2.09-7.8-2.09s-5.5.76-7.8,2.09c-2.37,1.37-4.34,3.34-5.71,5.71-1.33,2.29-2.09,4.96-2.09,7.8s.76,5.5,2.09,7.8c1.37,2.37,3.34,4.34,5.71,5.71,2.29,1.33,4.96,2.09,7.8,2.09s5.5-.76,7.8-2.09c2.37-1.37,4.34-3.34,5.71-5.71,1.33-2.29,2.09-4.96,2.09-7.8v-20.07c0-4.31-3.49-7.8-7.8-7.8Zm-7.8,35.67c-4.31,0-7.8-3.49-7.8-7.8s3.49-7.8,7.8-7.8,7.8,3.49,7.8,7.8-3.49,7.8-7.8,7.8Z"/>
    <path class="cls-1" d="m102.15,28.65c-1.37-2.37-3.34-4.34-5.71-5.71-2.29-1.33-4.96-2.09-7.8-2.09s-5.5.76-7.8,2.09c-2.37,1.37-4.34,3.34-5.71,5.71-1.33,2.29-2.09,4.96-2.09,7.8s.76,5.5,2.09,7.8c1.37,2.37,3.34,4.34,5.71,5.71,2.29,1.33,4.96,2.09,7.8,2.09s5.5-.76,7.8-2.09c.54-.31,1.06-.66,1.56-1.03,1.42,1.89,3.69,3.12,6.24,3.12v-15.59c0-2.84-.76-5.5-2.09-7.8Zm-21.3,7.8c0-4.31,3.49-7.8,7.8-7.8s7.8,3.49,7.8,7.8-3.49,7.8-7.8,7.8-7.8-3.49-7.8-7.8Z"/>
    <path class="cls-1" d="m208.49,28.65c-1.37-2.37-3.34-4.34-5.71-5.71-2.29-1.33-4.96-2.09-7.8-2.09s-5.5.76-7.8,2.09c-2.37,1.37-4.34,3.34-5.71,5.71-1.33,2.29-2.09,4.96-2.09,7.8s.76,5.5,2.09,7.8c1.37,2.37,3.34,4.34,5.71,5.71,2.29,1.33,4.96,2.09,7.8,2.09s5.5-.76,7.8-2.09c.54-.31,1.06-.66,1.56-1.03,1.42,1.89,3.69,3.12,6.24,3.12v-15.59c0-2.84-.76-5.5-2.09-7.8Zm-21.3,7.8c0-4.31,3.49-7.8,7.8-7.8s7.8,3.49,7.8,7.8-3.49,7.8-7.8,7.8-7.8-3.49-7.8-7.8Z"/>
    <path class="cls-1" d="m300.39,33.32c-1.17.7-2.14,1.7-2.82,2.88l-.52.9h19.2v-.6c0-1.32-.16-2.62-.49-3.89-.02-.06-.03-.12-.05-.18-.35-1.29-.87-2.54-1.54-3.71-1.36-2.36-3.33-4.33-5.69-5.69-1.18-.68-2.44-1.21-3.76-1.56-1.31-.35-2.66-.52-4.01-.52-2.74,0-5.42.72-7.77,2.08-2.36,1.36-4.33,3.33-5.69,5.69-.7,1.22-1.24,2.53-1.59,3.89-.32,1.26-.49,2.57-.49,3.88s.16,2.63.49,3.89c.35,1.36.89,2.67,1.59,3.88,1.36,2.36,3.33,4.33,5.69,5.69,2.35,1.36,5.04,2.08,7.77,2.08,1.36,0,2.71-.18,4.01-.52,1.31-.35,2.58-.87,3.76-1.56,2.36-1.36,4.33-3.33,5.69-5.69.67-1.16,1.19-2.41,1.54-3.7l.26-.93h-7.5l-.16.35c-.17.38-.39.76-.63,1.13l-.05.07c-.3.44-.63.84-1,1.21l-.03.03c-.39.39-.81.73-1.27,1.04-1.37.91-2.97,1.39-4.62,1.39-.51,0-1.02-.05-1.51-.14-1.11-.2-2.16-.63-3.11-1.26-.9-.59-1.66-1.34-2.26-2.22l-.08-.13c-.25-.37-.46-.75-.63-1.14-.5-1.09-.76-2.27-.76-3.49s.26-2.39.76-3.49c.17-.38.39-.76.63-1.14.62-.93,1.41-1.72,2.35-2.35,1.37-.91,2.97-1.39,4.62-1.39s3.25.48,4.62,1.39c.46.31.89.66,1.27,1.04l.03.03c.39.39.74.82,1.05,1.29.06.09.12.19.18.28h-3.29c-1.47,0-2.91.4-4.17,1.16Z"/>
    <path class="cls-1" d="m142.94,20.78h3.86c3.59,0,6.81,2.13,8.11,5.37l6.03,14.95,6.06-15.04c1.28-3.18,4.45-5.28,7.98-5.28h3.95l-11.8,27.27c-1.05,2.42-3.49,3.99-6.2,3.99h0c-2.71,0-5.15-1.57-6.2-3.99l-11.8-27.27Z"/>
    <path class="cls-1" d="m251.66,36.39c0-10.16,7.97-15.54,16-15.54,5.31,0,9.99,2.43,12.94,7.39l-.1.07c-3.05,1.99-6.86,2.33-10.28,1.07-.78-.28-1.63-.44-2.55-.44-3.87,0-7.16,2.89-7.16,7.45s3.29,7.57,7.16,7.57c1.5,0,2.79-.42,3.89-1.09,1.98-1.21,4.48-1.19,6.42.08l2.63,1.71c-2.95,4.85-7.62,7.39-12.94,7.39-8.03,0-16-5.37-16-15.65Z"/>
  </g>
  <g>
    <path class="cls-1" d="m13.56,64c0-2.7-.15-5.21.04-7.68.28-3.71,2.22-6.47,5.45-8.33,6.65-3.84,13.31-7.68,19.96-11.52.27-.15.53-.32.94-.58-.36-.23-.62-.41-.89-.56-11.2-6.47-22.41-12.94-33.61-19.42C1.88,13.85.07,10.73.01,6.61-.01,4.46,0,2.32,0,0c.36.17.63.28.87.42,12.59,7.26,25.18,14.52,37.76,21.79,4.79,2.77,9.6,5.52,14.38,8.3,4.32,2.51,4.43,8.11.12,10.66-7.33,4.32-14.73,8.53-22.1,12.78-5.42,3.13-10.84,6.27-16.26,9.4-.35.2-.71.39-1.21.65Z"/>
    <path class="cls-1" d="m32.44,35.87c-2.2,1.26-4.17,2.48-6.22,3.54-1.55.8-3.09,1.21-4.63,1.25-2.22.07-3.9-.7-5.97-1.62-.96-.43-2.48-1.12-4.19-2.47-1.15-.91-2.37-1.87-3.31-3.5-.88-1.53-1.24-2.86-1.32-4.88-.09-2.3-.02-4.6-.02-7.12,8.63,4.98,17.06,9.85,25.65,14.81Z"/>
  </g>
</svg>